<svg width="12" height="16" viewBox="0 0 12 16" fill="none" xmlns="http://www.w3.org/2000/svg">
<path d="M10.2547 2.70716L9.85058 13.6178C9.84364 13.8051 9.67872 13.9637 9.49066 13.9637H2.50886C2.32098 13.9637 2.15585 13.8045 2.14894 13.6178L1.74484 2.70716C1.73369 2.40612 1.48061 2.17112 1.17957 2.18227C0.878531 2.19342 0.643528 2.44649 0.654678 2.74753L1.05878 13.6582C1.08741 14.4312 1.7341 15.0546 2.50886 15.0546H9.49066C10.265 15.0546 10.9121 14.4324 10.9407 13.6582L11.3448 2.74753C11.356 2.44649 11.121 2.19342 10.8199 2.18227C10.5189 2.17112 10.2658 2.40612 10.2547 2.70716Z" fill="#FF0000"/>
<path d="M5.56348 4.90902V12.3272C5.56348 12.5682 5.75884 12.7636 5.99984 12.7636C6.24084 12.7636 6.4362 12.5682 6.4362 12.3272V4.90902C6.4362 4.66802 6.24084 4.47266 5.99984 4.47266C5.75884 4.47266 5.56348 4.66802 5.56348 4.90902Z" fill="#FF0000"/>
<path d="M3.16425 4.92185L3.38244 12.34C3.38952 12.5809 3.59055 12.7705 3.83144 12.7634C4.07233 12.7563 4.26187 12.5553 4.25479 12.3144L4.0366 4.89619C4.02952 4.6553 3.82849 4.46576 3.5876 4.47285C3.34671 4.47993 3.15717 4.68096 3.16425 4.92185Z" fill="#FF0000"/>
<path d="M7.96349 4.89619L7.74531 12.3144C7.73822 12.5553 7.92776 12.7563 8.16866 12.7634C8.40955 12.7705 8.61057 12.5809 8.61766 12.34L8.83584 4.92185C8.84293 4.68096 8.65339 4.47993 8.4125 4.47285C8.1716 4.46576 7.97058 4.6553 7.96349 4.89619Z" fill="#FF0000"/>
<path d="M0.545455 2.9454H11.4545C11.7558 2.9454 12 2.70119 12 2.39995C12 2.0987 11.7558 1.85449 11.4545 1.85449H0.545455C0.244208 1.85449 0 2.0987 0 2.39995C0 2.70119 0.244208 2.9454 0.545455 2.9454Z" fill="#FF0000"/>
<path d="M4.34288 2.22257L4.57001 1.42763C4.61866 1.25736 4.83937 1.09091 5.01656 1.09091H6.9839C7.16121 1.09091 7.38177 1.25722 7.43045 1.42763L7.65758 2.22257L8.70652 1.92288L8.47939 1.12793C8.29687 0.489127 7.64821 0 6.9839 0H5.01656C4.35233 0 3.70354 0.489303 3.52107 1.12793L3.29395 1.92288L4.34288 2.22257Z" fill="#FF0000"/>
</svg>
